<svg width="673" height="133" viewBox="0 0 673 133" fill="none" xmlns="http://www.w3.org/2000/svg">
<path d="M53.151 120.336C51.615 120.336 50.847 119.355 50.847 117.392C50.847 115.515 51.615 113.125 53.151 110.224L77.855 74.64C85.4497 63.7173 91.0817 54.7573 94.751 47.76C98.4203 40.7627 100.255 35.8133 100.255 32.912C100.255 31.5467 99.743 30.5227 98.719 29.84C97.695 29.1573 96.5003 28.688 95.135 28.432C93.7697 28.176 92.4897 28.048 91.295 28.048C84.0417 28.048 73.9297 32.4853 60.959 41.36C57.2897 43.8347 53.919 46.608 50.847 49.68C47.775 52.752 44.9163 56.0373 42.271 59.536C37.151 66.5333 34.591 72.4213 34.591 77.2C34.591 80.8693 36.2977 83.088 39.711 83.856C40.991 84.1973 42.4417 84.368 44.063 84.368C47.135 84.368 50.207 83.6 53.279 82.064C56.351 80.528 59.3377 78.5653 62.239 76.176C64.4577 74.2987 65.7377 73.36 66.079 73.36C66.4203 73.36 66.5483 73.6587 66.463 74.256C65.951 76.048 64.7137 77.7547 62.751 79.376C60.7883 80.9973 58.4417 82.4907 55.711 83.856C52.9803 85.136 50.207 86.16 47.391 86.928C44.6603 87.6107 42.2283 87.952 40.095 87.952C36.6817 87.952 33.695 87.0987 31.135 85.392C28.575 83.6 27.295 80.9973 27.295 77.584C27.295 72.3787 30.3243 65.9787 36.383 58.384C42.1857 51.0453 49.3537 44.5173 57.887 38.8C61.3857 36.4107 65.4817 34.1493 70.175 32.016C74.8683 29.7973 79.6043 28.0053 84.383 26.64C89.1617 25.1893 93.4283 24.464 97.183 24.464C103.924 24.464 107.295 26.6827 107.295 31.12C107.295 36.496 103.242 45.7547 95.135 58.896C89.4177 67.9413 81.8657 78.6933 72.479 91.152C64.7137 101.477 60.7883 106.64 60.703 106.64C60.959 106.64 65.055 102.245 72.991 93.456C77.855 87.9947 82.4203 83.1307 86.687 78.864C91.039 74.512 95.0497 70.7147 98.719 67.472C100.511 65.8507 102.687 63.8453 105.247 61.456C107.807 58.9813 110.794 56.1227 114.207 52.88C117.194 50.1493 120.095 47.6747 122.911 45.456C125.812 43.2373 128.458 42.128 130.847 42.128C133.322 42.128 134.943 42.7253 135.711 43.92C127.86 53.648 120.522 65.552 113.695 79.632C108.831 89.7013 106.399 97.3387 106.399 102.544C106.399 105.616 107.21 107.835 108.831 109.2C110.452 110.565 112.586 111.248 115.231 111.248C118.132 111.248 121.162 110.437 124.319 108.816C127.562 107.195 130.762 105.104 133.919 102.544C137.076 99.984 140.02 97.296 142.751 94.48C152.564 84.5813 160.372 73.872 166.175 62.352C170.698 53.3067 172.959 46.096 172.959 40.72C172.959 40.208 172.916 39.7387 172.831 39.312C172.831 38.8853 172.788 38.5013 172.703 38.16C170.911 38.16 168.991 37.2213 166.943 35.344C165.663 34.32 165.023 33.2533 165.023 32.144C165.023 31.12 165.45 30.2667 166.303 29.584C167.156 28.9013 168.138 28.56 169.247 28.56C170.868 28.56 172.063 29.2853 172.831 30.736C173.172 31.4187 173.855 32.272 174.879 33.296C175.562 33.9787 175.86 34.4907 175.775 34.832C176.287 35.6 177.14 35.984 178.335 35.984C179.53 35.984 180.639 35.472 181.663 34.448C182.772 33.424 183.967 32.912 185.247 32.912C185.93 32.912 186.271 33.168 186.271 33.68C186.271 34.6187 185.46 35.5147 183.839 36.368C182.986 36.9653 181.962 37.3493 180.767 37.52C180.084 37.6053 179.402 37.6907 178.719 37.776C178.036 37.776 177.354 37.6907 176.671 37.52C177.695 40.9333 178.207 43.4507 178.207 45.072C178.207 51.8987 174.964 60.7307 168.479 71.568C165.236 77.0293 161.524 82.192 157.343 87.056C153.162 91.92 148.468 96.4853 143.263 100.752C132.938 109.456 123.764 113.808 115.743 113.808C106.954 113.808 102.559 109.712 102.559 101.52C102.559 97.68 103.37 93.328 104.991 88.464C106.612 83.5147 108.532 78.608 110.751 73.744L119.967 53.648C116.212 56.5493 113.14 58.9387 110.751 60.816C108.447 62.608 106.484 64.144 104.863 65.424C103.327 66.704 101.834 68.0267 100.383 69.392C99.0177 70.672 97.3537 72.2507 95.391 74.128C93.2577 76.2613 90.399 79.3333 86.815 83.344C83.231 87.2693 79.0497 92.176 74.271 98.064L59.423 116.24C58.5697 117.264 57.5883 118.203 56.479 119.056C55.3697 119.909 54.2603 120.336 53.151 120.336ZM198.913 61.968C197.462 61.968 196.182 61.4987 195.073 60.56C194.049 59.6213 193.537 58.5547 193.537 57.36C193.537 54.9707 195.158 53.776 198.401 53.776C199.596 53.776 200.79 54.2027 201.985 55.056C203.18 55.824 203.777 56.8053 203.777 58C203.777 59.024 203.222 59.9627 202.113 60.816C201.004 61.584 199.937 61.968 198.913 61.968ZM175.233 107.408C173.356 107.408 171.82 106.811 170.625 105.616C169.345 104.336 168.705 102.117 168.705 98.96C168.705 97.168 169.132 95.12 169.985 92.816C170.753 90.4267 171.734 88.0373 172.929 85.648C174.209 83.2587 175.446 81.1253 176.641 79.248C181.42 71.4827 185.345 67.5573 188.417 67.472C189.185 67.472 190.124 67.8133 191.233 68.496C192.342 69.0933 192.897 69.776 192.897 70.544C192.897 70.544 189.654 74.7253 183.169 83.088C176.769 91.3653 173.569 97.2533 173.569 100.752C173.569 103.483 174.636 104.848 176.769 104.848C178.134 104.848 179.884 104.293 182.017 103.184C184.236 101.989 186.54 100.496 188.929 98.704C191.318 96.912 193.58 94.992 195.713 92.944C197.932 90.896 199.724 89.0187 201.089 87.312C201.942 86.2027 202.668 85.4347 203.265 85.008C203.948 84.5813 204.374 84.368 204.545 84.368C204.886 84.368 205.057 84.624 205.057 85.136C205.057 85.5627 204.545 86.416 203.521 87.696C202.582 88.976 201.26 90.4693 199.553 92.176C197.505 94.224 195.244 96.4427 192.769 98.832C190.294 101.221 187.606 103.269 184.705 104.976C181.804 106.597 178.646 107.408 175.233 107.408ZM209.228 106.256C206.753 106.256 204.449 105.659 202.316 104.464C200.183 103.184 199.116 101.093 199.116 98.192C199.116 94.1813 200.524 89.4027 203.34 83.856C206.241 78.3093 209.527 72.5493 213.196 66.576C223.18 50.3627 230.263 42.256 234.444 42.256C235.297 42.256 236.151 42.5973 237.004 43.28C237.943 43.8773 238.455 44.56 238.54 45.328L229.58 57.36C226.081 62.0533 222.924 66.4053 220.108 70.416C217.292 74.3413 214.86 77.8827 212.812 81.04C211.788 82.6613 210.636 84.496 209.356 86.544C208.076 88.592 206.924 90.7253 205.9 92.944C204.961 95.0773 204.492 97.2533 204.492 99.472C204.492 100.496 204.791 101.435 205.388 102.288C205.985 103.056 207.052 103.44 208.588 103.44C211.319 103.44 214.903 101.989 219.34 99.088C223.777 96.1013 228.172 92.0053 232.524 86.8C232.951 86.288 233.42 85.8187 233.932 85.392C234.444 84.9653 234.871 84.752 235.212 84.752C235.639 84.752 235.852 85.008 235.852 85.52C235.852 85.776 235.553 86.288 234.956 87.056C234.444 87.7387 234.017 88.2933 233.676 88.72L230.604 92.176C228.897 94.0533 226.849 96.1013 224.46 98.32C222.156 100.539 219.681 102.416 217.036 103.952C214.476 105.488 211.873 106.256 209.228 106.256ZM240.353 106.256C237.878 106.256 235.574 105.659 233.441 104.464C231.308 103.184 230.241 101.093 230.241 98.192C230.241 94.1813 231.649 89.4027 234.465 83.856C237.366 78.3093 240.652 72.5493 244.321 66.576C254.305 50.3627 261.388 42.256 265.569 42.256C266.422 42.256 267.276 42.5973 268.129 43.28C269.068 43.8773 269.58 44.56 269.665 45.328L260.705 57.36C257.206 62.0533 254.049 66.4053 251.233 70.416C248.417 74.3413 245.985 77.8827 243.937 81.04C242.913 82.6613 241.761 84.496 240.481 86.544C239.201 88.592 238.049 90.7253 237.025 92.944C236.086 95.0773 235.617 97.2533 235.617 99.472C235.617 100.496 235.916 101.435 236.513 102.288C237.11 103.056 238.177 103.44 239.713 103.44C242.444 103.44 246.028 101.989 250.465 99.088C254.902 96.1013 259.297 92.0053 263.649 86.8C264.076 86.288 264.545 85.8187 265.057 85.392C265.569 84.9653 265.996 84.752 266.337 84.752C266.764 84.752 266.977 85.008 266.977 85.52C266.977 85.776 266.678 86.288 266.081 87.056C265.569 87.7387 265.142 88.2933 264.801 88.72L261.729 92.176C260.022 94.0533 257.974 96.1013 255.585 98.32C253.281 100.539 250.806 102.416 248.161 103.952C245.601 105.488 242.998 106.256 240.353 106.256ZM290.038 61.968C288.587 61.968 287.307 61.4987 286.198 60.56C285.174 59.6213 284.662 58.5547 284.662 57.36C284.662 54.9707 286.283 53.776 289.526 53.776C290.721 53.776 291.915 54.2027 293.11 55.056C294.305 55.824 294.902 56.8053 294.902 58C294.902 59.024 294.347 59.9627 293.238 60.816C292.129 61.584 291.062 61.968 290.038 61.968ZM266.358 107.408C264.481 107.408 262.945 106.811 261.75 105.616C260.47 104.336 259.83 102.117 259.83 98.96C259.83 97.168 260.257 95.12 261.11 92.816C261.878 90.4267 262.859 88.0373 264.054 85.648C265.334 83.2587 266.571 81.1253 267.766 79.248C272.545 71.4827 276.47 67.5573 279.542 67.472C280.31 67.472 281.249 67.8133 282.358 68.496C283.467 69.0933 284.022 69.776 284.022 70.544C284.022 70.544 280.779 74.7253 274.294 83.088C267.894 91.3653 264.694 97.2533 264.694 100.752C264.694 103.483 265.761 104.848 267.894 104.848C269.259 104.848 271.009 104.293 273.142 103.184C275.361 101.989 277.665 100.496 280.054 98.704C282.443 96.912 284.705 94.992 286.838 92.944C289.057 90.896 290.849 89.0187 292.214 87.312C293.067 86.2027 293.793 85.4347 294.39 85.008C295.073 84.5813 295.499 84.368 295.67 84.368C296.011 84.368 296.182 84.624 296.182 85.136C296.182 85.5627 295.67 86.416 294.646 87.696C293.707 88.976 292.385 90.4693 290.678 92.176C288.63 94.224 286.369 96.4427 283.894 98.832C281.419 101.221 278.731 103.269 275.83 104.976C272.929 106.597 269.771 107.408 266.358 107.408ZM299.201 106.64C297.153 106.64 295.105 105.915 293.057 104.464C291.009 103.013 289.857 101.307 289.601 99.344C288.748 92.7733 292.886 84.9653 302.017 75.92C311.062 66.8747 319.212 62.352 326.465 62.352C328.428 62.352 329.964 62.8213 331.073 63.76C331.67 64.3573 332.097 65.168 332.353 66.192C332.694 67.216 332.95 67.728 333.121 67.728C333.462 67.728 333.761 67.6853 334.017 67.6C334.273 67.4293 334.572 67.344 334.913 67.344C335.937 67.344 336.833 67.728 337.601 68.496C338.369 69.264 338.796 69.9467 338.881 70.544C338.966 70.7147 336.236 74.9387 330.689 83.216C325.142 91.3227 322.625 96.8267 323.137 99.728C323.564 101.691 324.502 102.672 325.953 102.672C330.39 102.672 338.497 95.3333 350.273 80.656C350.529 80.3147 350.785 80.144 351.041 80.144C351.468 80.144 351.681 80.4427 351.681 81.04C351.681 81.7227 351.297 82.576 350.529 83.6C339.692 98.192 331.372 105.488 325.569 105.488C324.801 105.488 324.076 105.36 323.393 105.104C319.638 103.653 317.761 100.837 317.761 96.656C317.761 95.2053 317.932 93.7547 318.273 92.304L310.337 99.984C307.948 102.373 305.772 104.08 303.809 105.104C301.932 106.128 300.396 106.64 299.201 106.64ZM298.049 103.824C302.998 103.824 309.74 98.4053 318.273 87.568L331.841 68.88C331.158 67.6853 330.049 67.088 328.513 67.088C323.308 67.088 316.268 71.2693 307.393 79.632C298.177 88.1653 294.038 95.2053 294.977 100.752C295.404 102.8 296.428 103.824 298.049 103.824ZM373.583 106.256C371.535 106.256 370.511 105.104 370.511 102.8C371.45 98.0213 373.37 92.6453 376.271 86.672C377.636 83.7707 379.002 80.912 380.367 78.096C381.818 75.28 383.226 72.4213 384.591 69.52C381.434 71.6533 378.276 74.0427 375.119 76.688C371.962 79.248 368.89 82.1493 365.903 85.392C362.404 89.1467 358.351 93.968 353.743 99.856C350.415 104.037 348.495 106.128 347.983 106.128C346.788 106.128 345.807 105.573 345.039 104.464C344.271 103.355 343.887 102.416 343.887 101.648C343.887 100.539 344.868 97.68 346.831 93.072C347.428 91.6213 348.026 90.2133 348.623 88.848C349.306 87.3973 349.946 85.9893 350.543 84.624L342.863 92.688C342.692 92.8587 342.18 93.3707 341.327 94.224C340.474 95.0773 339.791 95.504 339.279 95.504C338.852 95.504 338.639 95.2053 338.639 94.608C338.639 94.4373 338.724 94.224 338.895 93.968C338.98 93.6267 339.236 93.2427 339.663 92.816C340.943 91.536 342.266 90.1707 343.631 88.72C344.996 87.2693 346.404 85.6053 347.855 83.728C348.964 82.2773 350.543 80.144 352.591 77.328C354.724 74.4267 357.327 70.8 360.399 66.448C361.338 65.168 362.66 64.528 364.367 64.528C366.074 64.528 366.927 65.3387 366.927 66.96C366.927 67.5573 364.751 71.5253 360.399 78.864C358.18 82.7893 356.388 85.9893 355.023 88.464C353.743 90.9387 352.932 92.7733 352.591 93.968C354.468 91.92 356.687 89.616 359.247 87.056C361.892 84.496 364.922 81.6373 368.335 78.48C378.831 68.752 385.743 63.888 389.071 63.888C390.01 63.888 390.906 64.1867 391.759 64.784C392.698 65.3813 393.167 66.1493 393.167 67.088C393.167 67.5147 391.503 70.6293 388.175 76.432C384.932 82.32 383.14 85.8187 382.799 86.928C392.271 78.992 397.007 74.9813 397.007 74.896C405.028 68.6667 410.788 65.552 414.287 65.552C415.311 65.552 416.25 65.8933 417.103 66.576C418.042 67.1733 418.511 67.8987 418.511 68.752C418.511 68.9227 415.78 72.5067 410.319 79.504C404.687 86.5867 401.53 92.3893 400.847 96.912C400.506 99.984 402.084 101.52 405.583 101.52C407.716 101.52 410.703 100.155 414.543 97.424C418.383 94.6933 422.394 90.9387 426.575 86.16C427.087 85.5627 427.642 85.008 428.239 84.496C428.836 83.8987 429.348 83.6 429.775 83.6C430.287 83.6 430.543 83.8133 430.543 84.24C430.543 84.8373 430.159 85.52 429.391 86.288C427.172 88.9333 424.527 91.664 421.455 94.48C418.468 97.296 415.482 99.6853 412.495 101.648C409.508 103.525 406.863 104.464 404.559 104.464C398.756 104.464 395.855 101.776 395.855 96.4C395.855 94.5227 396.367 92.3467 397.391 89.872C398.415 87.312 399.439 85.008 400.463 82.96C402.938 78.1813 405.626 73.9573 408.527 70.288C405.796 71.6533 402.938 73.4453 399.951 75.664C397.05 77.8827 394.02 80.4853 390.863 83.472C383.524 90.64 378.49 97.8933 375.759 105.232C375.332 105.915 374.607 106.256 373.583 106.256Z" fill="black"/>
<path d="M476.238 115.2C471.101 115.2 466.31 114.548 461.863 113.245C457.493 111.942 453.928 109.948 451.168 107.265C448.485 104.582 447.143 101.208 447.143 97.145C447.143 94.0017 448.14 90.8583 450.133 87.715C457.186 76.5217 469.223 68.2033 486.243 62.76C483.713 59.8467 482.448 56.55 482.448 52.87C482.448 49.88 483.253 47.3117 484.863 45.165C488.006 40.8717 492.76 37.3067 499.123 34.47C502.726 32.9367 506.368 31.7483 510.048 30.905C513.805 30.0617 517.6 29.64 521.433 29.64C526.186 29.64 529.79 30.4067 532.243 31.94C534.773 33.4733 536.038 35.62 536.038 38.38C536.038 40.2967 535.501 42.06 534.428 43.67C533.431 45.2033 532.166 46.4683 530.633 47.465C529.1 48.385 527.528 48.845 525.918 48.845C523.541 48.845 522.353 48.27 522.353 47.12C522.353 46.43 522.851 46.085 523.848 46.085C524.155 46.085 524.538 46.1617 524.998 46.315C525.535 46.3917 525.918 46.43 526.148 46.43C527.758 46.43 529.176 45.5867 530.403 43.9C531.63 42.2133 532.243 40.5267 532.243 38.84C532.243 36.3867 531.055 34.6233 528.678 33.55C526.378 32.4767 523.771 31.94 520.858 31.94C513.575 31.94 506.445 34.2783 499.468 38.955C492.108 43.785 488.428 49.2283 488.428 55.285C488.428 57.5083 489.195 59.5783 490.728 61.495C493.411 60.6517 495.903 60.0767 498.203 59.77C500.58 59.3867 502.841 59.195 504.988 59.195C512.348 59.195 516.028 60.6133 516.028 63.45C516.028 64.7533 515.491 65.9033 514.418 66.9C513.345 67.82 511.965 68.5483 510.278 69.085C508.668 69.545 507.02 69.775 505.333 69.775C503.57 69.775 501.615 69.545 499.468 69.085C497.321 68.625 495.251 68.0117 493.258 67.245C491.265 66.4783 489.578 65.5967 488.198 64.6C480.991 66.67 474.59 69.89 468.993 74.26C463.473 78.5533 459.371 83.3833 456.688 88.75C455.231 91.6633 454.503 94.5 454.503 97.26C454.503 100.633 455.461 103.393 457.378 105.54C459.295 107.687 461.825 109.258 464.968 110.255C468.188 111.252 471.715 111.75 475.548 111.75C481.911 111.75 488.236 110.715 494.523 108.645C500.81 106.652 506.176 103.662 510.623 99.675C516.68 94.3083 519.708 88.6733 519.708 82.77C519.708 78.0933 517.446 75.755 512.923 75.755C510.546 75.755 507.901 76.3683 504.988 77.595C502.075 78.745 499.315 80.3167 496.708 82.31C494.178 84.3033 492.07 86.4883 490.383 88.865C488.696 91.2417 487.853 93.6567 487.853 96.11C487.853 98.5633 488.926 100.058 491.073 100.595C491.84 100.902 492.223 101.285 492.223 101.745C492.223 102.358 491.648 102.665 490.498 102.665C486.435 102.665 484.403 100.403 484.403 95.88C484.403 92.89 485.285 90.0533 487.048 87.37C488.811 84.6867 491.073 82.31 493.833 80.24C496.67 78.17 499.736 76.56 503.033 75.41C506.33 74.1833 509.511 73.57 512.578 73.57C516.181 73.57 518.98 74.375 520.973 75.985C522.966 77.5183 523.963 80.0483 523.963 83.575C523.963 90.705 520.015 97.4133 512.118 103.7C507.135 107.763 501.615 110.677 495.558 112.44C489.501 114.28 483.061 115.2 476.238 115.2ZM504.298 67.245C508.438 67.245 510.508 66.0567 510.508 63.68C510.508 62.6067 508.438 62.07 504.298 62.07C502.458 62.07 500.541 62.185 498.548 62.415C496.631 62.645 494.676 62.9517 492.683 63.335C495.98 65.9417 499.851 67.245 504.298 67.245ZM534.015 106.575C532.175 106.575 530.335 105.923 528.495 104.62C526.655 103.317 525.62 101.783 525.39 100.02C524.623 94.1167 528.341 87.1017 536.545 78.975C544.671 70.8483 551.993 66.785 558.51 66.785C560.273 66.785 561.653 67.2067 562.65 68.05C563.186 68.5867 563.57 69.315 563.8 70.235C564.106 71.155 564.336 71.615 564.49 71.615C564.796 71.615 565.065 71.5767 565.295 71.5C565.525 71.3467 565.793 71.27 566.1 71.27C567.02 71.27 567.825 71.615 568.515 72.305C569.205 72.995 569.588 73.6083 569.665 74.145C569.741 74.2983 567.288 78.0933 562.305 85.53C557.321 92.8133 555.06 97.7583 555.52 100.365C555.903 102.128 556.746 103.01 558.05 103.01C562.036 103.01 569.32 96.4167 579.9 83.23C580.13 82.9233 580.36 82.77 580.59 82.77C580.973 82.77 581.165 83.0383 581.165 83.575C581.165 84.1883 580.82 84.955 580.13 85.875C570.393 98.985 562.918 105.54 557.705 105.54C557.015 105.54 556.363 105.425 555.75 105.195C552.376 103.892 550.69 101.362 550.69 97.605C550.69 96.3017 550.843 94.9983 551.15 93.695L544.02 100.595C541.873 102.742 539.918 104.275 538.155 105.195C536.468 106.115 535.088 106.575 534.015 106.575ZM532.98 104.045C537.426 104.045 543.483 99.1767 551.15 89.44L563.34 72.65C562.726 71.5767 561.73 71.04 560.35 71.04C555.673 71.04 549.348 74.7967 541.375 82.31C533.095 89.9767 529.376 96.3017 530.22 101.285C530.603 103.125 531.523 104.045 532.98 104.045ZM580.832 106.69C578.379 106.69 576.424 106.115 574.967 104.965C573.587 103.738 572.897 101.592 572.897 98.525C572.897 96.7617 573.434 94.5383 574.507 91.855C575.58 89.095 576.922 86.1433 578.532 83C580.142 79.8567 581.752 76.7517 583.362 73.685C582.365 73.915 581.484 74.03 580.717 74.03C578.417 74.03 577.267 73.1483 577.267 71.385C577.267 70.5417 577.574 69.89 578.187 69.43C578.877 68.97 579.49 68.7017 580.027 68.625C580.027 68.625 580.104 68.625 580.257 68.625C580.487 68.625 580.755 68.5867 581.062 68.51H587.732C589.112 66.7467 590.53 64.8683 591.987 62.875C594.057 60.2683 595.705 58.735 596.932 58.275H597.277C597.814 58.275 598.58 58.5433 599.577 59.08C600.804 59.77 601.417 60.46 601.417 61.15C601.417 62.1467 599.577 64.715 595.897 68.855C596.587 68.9317 597.584 68.97 598.887 68.97C600.19 68.97 601.8 68.97 603.717 68.97C604.637 68.97 605.94 68.97 607.627 68.97C609.39 68.97 611.192 68.97 613.032 68.97C614.949 68.8933 616.597 68.855 617.977 68.855C619.357 68.7783 620.124 68.74 620.277 68.74C620.507 68.8167 620.622 68.9317 620.622 69.085C620.622 69.775 616.099 70.695 607.052 71.845C601.915 72.535 597.967 73.0717 595.207 73.455C592.524 73.8383 591.067 74.0683 590.837 74.145C589.764 75.065 588.46 76.6367 586.927 78.86C585.394 81.0833 583.86 83.575 582.327 86.335C580.794 89.095 579.49 91.74 578.417 94.27C577.42 96.7233 576.922 98.64 576.922 100.02C576.922 101.247 577.382 102.282 578.302 103.125C579.222 103.892 580.717 104.275 582.787 104.275C584.167 104.275 585.815 103.968 587.732 103.355C589.649 102.742 591.45 102.052 593.137 101.285C594.9 100.442 596.165 99.79 596.932 99.33C598.925 98.1033 601.11 96.4933 603.487 94.5C605.94 92.43 608.355 90.0917 610.732 87.485C611.805 86.4117 612.534 85.875 612.917 85.875C613.147 85.875 613.262 86.0283 613.262 86.335C613.262 86.9483 612.687 87.945 611.537 89.325C609.697 91.5483 607.627 93.695 605.327 95.765C603.104 97.7583 600.612 99.5983 597.852 101.285C594.709 103.202 591.68 104.582 588.767 105.425C585.93 106.268 583.285 106.69 580.832 106.69ZM621.068 106.23C617.464 106.23 614.781 105.042 613.018 102.665C611.331 100.288 609.951 96.9917 608.878 92.775C607.498 94.155 606.539 94.845 606.003 94.845C605.619 94.845 605.428 94.5383 605.428 93.925C605.428 93.465 605.619 93.0433 606.003 92.66C606.003 92.66 606.961 91.4717 608.878 89.095C610.871 86.7183 614.206 83.3833 618.883 79.09L633.373 65.52C635.366 63.6033 636.938 62.1467 638.088 61.15C639.314 60.1533 640.196 59.655 640.733 59.655C643.186 59.655 644.413 60.575 644.413 62.415C644.413 63.335 643.914 64.4083 642.918 65.635C642.151 66.555 641.576 67.2833 641.193 67.82C640.886 68.28 640.694 68.5483 640.618 68.625C639.238 71.0017 637.973 75.2567 636.823 81.39C635.979 85.9133 635.251 89.6317 634.638 92.545C634.024 95.4583 633.526 97.5667 633.143 98.87C636.363 98.7933 639.544 97.7967 642.688 95.88C645.831 93.9633 649.204 90.82 652.808 86.45C652.961 86.2967 653.191 86.0667 653.498 85.76C653.804 85.4533 654.111 85.3 654.418 85.3C654.878 85.3 655.108 85.4917 655.108 85.875C655.108 86.2583 654.993 86.6417 654.763 87.025C654.533 87.4083 654.303 87.7533 654.073 88.06C651.696 90.8967 649.473 93.235 647.403 95.075C645.333 96.8383 643.148 98.2567 640.848 99.33C638.548 100.327 635.826 101.17 632.683 101.86L629.003 104.275C628.006 104.965 626.818 105.463 625.438 105.77C624.058 106.077 622.601 106.23 621.068 106.23ZM622.448 100.365C624.211 100.365 625.668 99.9433 626.818 99.1C627.661 98.64 628.466 97.375 629.233 95.305C630.076 93.1583 630.881 90.5133 631.648 87.37C632.261 84.6867 632.721 82.08 633.028 79.55C633.411 76.9433 633.756 74.4517 634.063 72.075L634.523 68.165C632.759 69.4683 630.536 71.3467 627.853 73.8C625.169 76.2533 622.524 78.8217 619.918 81.505C617.311 84.1883 615.624 86.1817 614.858 87.485C614.091 88.7117 613.669 89.6317 613.593 90.245C613.286 93.3117 614.014 95.765 615.778 97.605C617.618 99.445 619.841 100.365 622.448 100.365Z" fill="black"/>
</svg>
