<svg width="665" height="127" viewBox="0 0 665 127" fill="none" xmlns="http://www.w3.org/2000/svg">
<path d="M53.151 120.336C51.615 120.336 50.847 119.355 50.847 117.392C50.847 115.515 51.615 113.125 53.151 110.224L77.855 74.64C85.4497 63.7173 91.0817 54.7573 94.751 47.76C98.4203 40.7627 100.255 35.8133 100.255 32.912C100.255 31.5467 99.743 30.5227 98.719 29.84C97.695 29.1573 96.5003 28.688 95.135 28.432C93.7697 28.176 92.4897 28.048 91.295 28.048C84.0417 28.048 73.9297 32.4853 60.959 41.36C57.2897 43.8347 53.919 46.608 50.847 49.68C47.775 52.752 44.9163 56.0373 42.271 59.536C37.151 66.5333 34.591 72.4213 34.591 77.2C34.591 80.8693 36.2977 83.088 39.711 83.856C40.991 84.1973 42.4417 84.368 44.063 84.368C47.135 84.368 50.207 83.6 53.279 82.064C56.351 80.528 59.3377 78.5653 62.239 76.176C64.4577 74.2987 65.7377 73.36 66.079 73.36C66.4203 73.36 66.5483 73.6587 66.463 74.256C65.951 76.048 64.7137 77.7547 62.751 79.376C60.7883 80.9973 58.4417 82.4907 55.711 83.856C52.9803 85.136 50.207 86.16 47.391 86.928C44.6603 87.6107 42.2283 87.952 40.095 87.952C36.6817 87.952 33.695 87.0987 31.135 85.392C28.575 83.6 27.295 80.9973 27.295 77.584C27.295 72.3787 30.3243 65.9787 36.383 58.384C42.1857 51.0453 49.3537 44.5173 57.887 38.8C61.3857 36.4107 65.4817 34.1493 70.175 32.016C74.8683 29.7973 79.6043 28.0053 84.383 26.64C89.1617 25.1893 93.4283 24.464 97.183 24.464C103.924 24.464 107.295 26.6827 107.295 31.12C107.295 36.496 103.242 45.7547 95.135 58.896C89.4177 67.9413 81.8657 78.6933 72.479 91.152C64.7137 101.477 60.7883 106.64 60.703 106.64C60.959 106.64 65.055 102.245 72.991 93.456C77.855 87.9947 82.4203 83.1307 86.687 78.864C91.039 74.512 95.0497 70.7147 98.719 67.472C100.511 65.8507 102.687 63.8453 105.247 61.456C107.807 58.9813 110.794 56.1227 114.207 52.88C117.194 50.1493 120.095 47.6747 122.911 45.456C125.812 43.2373 128.458 42.128 130.847 42.128C133.322 42.128 134.943 42.7253 135.711 43.92C127.86 53.648 120.522 65.552 113.695 79.632C108.831 89.7013 106.399 97.3387 106.399 102.544C106.399 105.616 107.21 107.835 108.831 109.2C110.452 110.565 112.586 111.248 115.231 111.248C118.132 111.248 121.162 110.437 124.319 108.816C127.562 107.195 130.762 105.104 133.919 102.544C137.076 99.984 140.02 97.296 142.751 94.48C152.564 84.5813 160.372 73.872 166.175 62.352C170.698 53.3067 172.959 46.096 172.959 40.72C172.959 40.208 172.916 39.7387 172.831 39.312C172.831 38.8853 172.788 38.5013 172.703 38.16C170.911 38.16 168.991 37.2213 166.943 35.344C165.663 34.32 165.023 33.2533 165.023 32.144C165.023 31.12 165.45 30.2667 166.303 29.584C167.156 28.9013 168.138 28.56 169.247 28.56C170.868 28.56 172.063 29.2853 172.831 30.736C173.172 31.4187 173.855 32.272 174.879 33.296C175.562 33.9787 175.86 34.4907 175.775 34.832C176.287 35.6 177.14 35.984 178.335 35.984C179.53 35.984 180.639 35.472 181.663 34.448C182.772 33.424 183.967 32.912 185.247 32.912C185.93 32.912 186.271 33.168 186.271 33.68C186.271 34.6187 185.46 35.5147 183.839 36.368C182.986 36.9653 181.962 37.3493 180.767 37.52C180.084 37.6053 179.402 37.6907 178.719 37.776C178.036 37.776 177.354 37.6907 176.671 37.52C177.695 40.9333 178.207 43.4507 178.207 45.072C178.207 51.8987 174.964 60.7307 168.479 71.568C165.236 77.0293 161.524 82.192 157.343 87.056C153.162 91.92 148.468 96.4853 143.263 100.752C132.938 109.456 123.764 113.808 115.743 113.808C106.954 113.808 102.559 109.712 102.559 101.52C102.559 97.68 103.37 93.328 104.991 88.464C106.612 83.5147 108.532 78.608 110.751 73.744L119.967 53.648C116.212 56.5493 113.14 58.9387 110.751 60.816C108.447 62.608 106.484 64.144 104.863 65.424C103.327 66.704 101.834 68.0267 100.383 69.392C99.0177 70.672 97.3537 72.2507 95.391 74.128C93.2577 76.2613 90.399 79.3333 86.815 83.344C83.231 87.2693 79.0497 92.176 74.271 98.064L59.423 116.24C58.5697 117.264 57.5883 118.203 56.479 119.056C55.3697 119.909 54.2603 120.336 53.151 120.336ZM198.913 61.968C197.462 61.968 196.182 61.4987 195.073 60.56C194.049 59.6213 193.537 58.5547 193.537 57.36C193.537 54.9707 195.158 53.776 198.401 53.776C199.596 53.776 200.79 54.2027 201.985 55.056C203.18 55.824 203.777 56.8053 203.777 58C203.777 59.024 203.222 59.9627 202.113 60.816C201.004 61.584 199.937 61.968 198.913 61.968ZM175.233 107.408C173.356 107.408 171.82 106.811 170.625 105.616C169.345 104.336 168.705 102.117 168.705 98.96C168.705 97.168 169.132 95.12 169.985 92.816C170.753 90.4267 171.734 88.0373 172.929 85.648C174.209 83.2587 175.446 81.1253 176.641 79.248C181.42 71.4827 185.345 67.5573 188.417 67.472C189.185 67.472 190.124 67.8133 191.233 68.496C192.342 69.0933 192.897 69.776 192.897 70.544C192.897 70.544 189.654 74.7253 183.169 83.088C176.769 91.3653 173.569 97.2533 173.569 100.752C173.569 103.483 174.636 104.848 176.769 104.848C178.134 104.848 179.884 104.293 182.017 103.184C184.236 101.989 186.54 100.496 188.929 98.704C191.318 96.912 193.58 94.992 195.713 92.944C197.932 90.896 199.724 89.0187 201.089 87.312C201.942 86.2027 202.668 85.4347 203.265 85.008C203.948 84.5813 204.374 84.368 204.545 84.368C204.886 84.368 205.057 84.624 205.057 85.136C205.057 85.5627 204.545 86.416 203.521 87.696C202.582 88.976 201.26 90.4693 199.553 92.176C197.505 94.224 195.244 96.4427 192.769 98.832C190.294 101.221 187.606 103.269 184.705 104.976C181.804 106.597 178.646 107.408 175.233 107.408ZM209.228 106.256C206.753 106.256 204.449 105.659 202.316 104.464C200.183 103.184 199.116 101.093 199.116 98.192C199.116 94.1813 200.524 89.4027 203.34 83.856C206.241 78.3093 209.527 72.5493 213.196 66.576C223.18 50.3627 230.263 42.256 234.444 42.256C235.297 42.256 236.151 42.5973 237.004 43.28C237.943 43.8773 238.455 44.56 238.54 45.328L229.58 57.36C226.081 62.0533 222.924 66.4053 220.108 70.416C217.292 74.3413 214.86 77.8827 212.812 81.04C211.788 82.6613 210.636 84.496 209.356 86.544C208.076 88.592 206.924 90.7253 205.9 92.944C204.961 95.0773 204.492 97.2533 204.492 99.472C204.492 100.496 204.791 101.435 205.388 102.288C205.985 103.056 207.052 103.44 208.588 103.44C211.319 103.44 214.903 101.989 219.34 99.088C223.777 96.1013 228.172 92.0053 232.524 86.8C232.951 86.288 233.42 85.8187 233.932 85.392C234.444 84.9653 234.871 84.752 235.212 84.752C235.639 84.752 235.852 85.008 235.852 85.52C235.852 85.776 235.553 86.288 234.956 87.056C234.444 87.7387 234.017 88.2933 233.676 88.72L230.604 92.176C228.897 94.0533 226.849 96.1013 224.46 98.32C222.156 100.539 219.681 102.416 217.036 103.952C214.476 105.488 211.873 106.256 209.228 106.256ZM240.353 106.256C237.878 106.256 235.574 105.659 233.441 104.464C231.308 103.184 230.241 101.093 230.241 98.192C230.241 94.1813 231.649 89.4027 234.465 83.856C237.366 78.3093 240.652 72.5493 244.321 66.576C254.305 50.3627 261.388 42.256 265.569 42.256C266.422 42.256 267.276 42.5973 268.129 43.28C269.068 43.8773 269.58 44.56 269.665 45.328L260.705 57.36C257.206 62.0533 254.049 66.4053 251.233 70.416C248.417 74.3413 245.985 77.8827 243.937 81.04C242.913 82.6613 241.761 84.496 240.481 86.544C239.201 88.592 238.049 90.7253 237.025 92.944C236.086 95.0773 235.617 97.2533 235.617 99.472C235.617 100.496 235.916 101.435 236.513 102.288C237.11 103.056 238.177 103.44 239.713 103.44C242.444 103.44 246.028 101.989 250.465 99.088C254.902 96.1013 259.297 92.0053 263.649 86.8C264.076 86.288 264.545 85.8187 265.057 85.392C265.569 84.9653 265.996 84.752 266.337 84.752C266.764 84.752 266.977 85.008 266.977 85.52C266.977 85.776 266.678 86.288 266.081 87.056C265.569 87.7387 265.142 88.2933 264.801 88.72L261.729 92.176C260.022 94.0533 257.974 96.1013 255.585 98.32C253.281 100.539 250.806 102.416 248.161 103.952C245.601 105.488 242.998 106.256 240.353 106.256ZM290.038 61.968C288.587 61.968 287.307 61.4987 286.198 60.56C285.174 59.6213 284.662 58.5547 284.662 57.36C284.662 54.9707 286.283 53.776 289.526 53.776C290.721 53.776 291.915 54.2027 293.11 55.056C294.305 55.824 294.902 56.8053 294.902 58C294.902 59.024 294.347 59.9627 293.238 60.816C292.129 61.584 291.062 61.968 290.038 61.968ZM266.358 107.408C264.481 107.408 262.945 106.811 261.75 105.616C260.47 104.336 259.83 102.117 259.83 98.96C259.83 97.168 260.257 95.12 261.11 92.816C261.878 90.4267 262.859 88.0373 264.054 85.648C265.334 83.2587 266.571 81.1253 267.766 79.248C272.545 71.4827 276.47 67.5573 279.542 67.472C280.31 67.472 281.249 67.8133 282.358 68.496C283.467 69.0933 284.022 69.776 284.022 70.544C284.022 70.544 280.779 74.7253 274.294 83.088C267.894 91.3653 264.694 97.2533 264.694 100.752C264.694 103.483 265.761 104.848 267.894 104.848C269.259 104.848 271.009 104.293 273.142 103.184C275.361 101.989 277.665 100.496 280.054 98.704C282.443 96.912 284.705 94.992 286.838 92.944C289.057 90.896 290.849 89.0187 292.214 87.312C293.067 86.2027 293.793 85.4347 294.39 85.008C295.073 84.5813 295.499 84.368 295.67 84.368C296.011 84.368 296.182 84.624 296.182 85.136C296.182 85.5627 295.67 86.416 294.646 87.696C293.707 88.976 292.385 90.4693 290.678 92.176C288.63 94.224 286.369 96.4427 283.894 98.832C281.419 101.221 278.731 103.269 275.83 104.976C272.929 106.597 269.771 107.408 266.358 107.408ZM299.201 106.64C297.153 106.64 295.105 105.915 293.057 104.464C291.009 103.013 289.857 101.307 289.601 99.344C288.748 92.7733 292.886 84.9653 302.017 75.92C311.062 66.8747 319.212 62.352 326.465 62.352C328.428 62.352 329.964 62.8213 331.073 63.76C331.67 64.3573 332.097 65.168 332.353 66.192C332.694 67.216 332.95 67.728 333.121 67.728C333.462 67.728 333.761 67.6853 334.017 67.6C334.273 67.4293 334.572 67.344 334.913 67.344C335.937 67.344 336.833 67.728 337.601 68.496C338.369 69.264 338.796 69.9467 338.881 70.544C338.966 70.7147 336.236 74.9387 330.689 83.216C325.142 91.3227 322.625 96.8267 323.137 99.728C323.564 101.691 324.502 102.672 325.953 102.672C330.39 102.672 338.497 95.3333 350.273 80.656C350.529 80.3147 350.785 80.144 351.041 80.144C351.468 80.144 351.681 80.4427 351.681 81.04C351.681 81.7227 351.297 82.576 350.529 83.6C339.692 98.192 331.372 105.488 325.569 105.488C324.801 105.488 324.076 105.36 323.393 105.104C319.638 103.653 317.761 100.837 317.761 96.656C317.761 95.2053 317.932 93.7547 318.273 92.304L310.337 99.984C307.948 102.373 305.772 104.08 303.809 105.104C301.932 106.128 300.396 106.64 299.201 106.64ZM298.049 103.824C302.998 103.824 309.74 98.4053 318.273 87.568L331.841 68.88C331.158 67.6853 330.049 67.088 328.513 67.088C323.308 67.088 316.268 71.2693 307.393 79.632C298.177 88.1653 294.038 95.2053 294.977 100.752C295.404 102.8 296.428 103.824 298.049 103.824ZM373.583 106.256C371.535 106.256 370.511 105.104 370.511 102.8C371.45 98.0213 373.37 92.6453 376.271 86.672C377.636 83.7707 379.002 80.912 380.367 78.096C381.818 75.28 383.226 72.4213 384.591 69.52C381.434 71.6533 378.276 74.0427 375.119 76.688C371.962 79.248 368.89 82.1493 365.903 85.392C362.404 89.1467 358.351 93.968 353.743 99.856C350.415 104.037 348.495 106.128 347.983 106.128C346.788 106.128 345.807 105.573 345.039 104.464C344.271 103.355 343.887 102.416 343.887 101.648C343.887 100.539 344.868 97.68 346.831 93.072C347.428 91.6213 348.026 90.2133 348.623 88.848C349.306 87.3973 349.946 85.9893 350.543 84.624L342.863 92.688C342.692 92.8587 342.18 93.3707 341.327 94.224C340.474 95.0773 339.791 95.504 339.279 95.504C338.852 95.504 338.639 95.2053 338.639 94.608C338.639 94.4373 338.724 94.224 338.895 93.968C338.98 93.6267 339.236 93.2427 339.663 92.816C340.943 91.536 342.266 90.1707 343.631 88.72C344.996 87.2693 346.404 85.6053 347.855 83.728C348.964 82.2773 350.543 80.144 352.591 77.328C354.724 74.4267 357.327 70.8 360.399 66.448C361.338 65.168 362.66 64.528 364.367 64.528C366.074 64.528 366.927 65.3387 366.927 66.96C366.927 67.5573 364.751 71.5253 360.399 78.864C358.18 82.7893 356.388 85.9893 355.023 88.464C353.743 90.9387 352.932 92.7733 352.591 93.968C354.468 91.92 356.687 89.616 359.247 87.056C361.892 84.496 364.922 81.6373 368.335 78.48C378.831 68.752 385.743 63.888 389.071 63.888C390.01 63.888 390.906 64.1867 391.759 64.784C392.698 65.3813 393.167 66.1493 393.167 67.088C393.167 67.5147 391.503 70.6293 388.175 76.432C384.932 82.32 383.14 85.8187 382.799 86.928C392.271 78.992 397.007 74.9813 397.007 74.896C405.028 68.6667 410.788 65.552 414.287 65.552C415.311 65.552 416.25 65.8933 417.103 66.576C418.042 67.1733 418.511 67.8987 418.511 68.752C418.511 68.9227 415.78 72.5067 410.319 79.504C404.687 86.5867 401.53 92.3893 400.847 96.912C400.506 99.984 402.084 101.52 405.583 101.52C407.716 101.52 410.703 100.155 414.543 97.424C418.383 94.6933 422.394 90.9387 426.575 86.16C427.087 85.5627 427.642 85.008 428.239 84.496C428.836 83.8987 429.348 83.6 429.775 83.6C430.287 83.6 430.543 83.8133 430.543 84.24C430.543 84.8373 430.159 85.52 429.391 86.288C427.172 88.9333 424.527 91.664 421.455 94.48C418.468 97.296 415.482 99.6853 412.495 101.648C409.508 103.525 406.863 104.464 404.559 104.464C398.756 104.464 395.855 101.776 395.855 96.4C395.855 94.5227 396.367 92.3467 397.391 89.872C398.415 87.312 399.439 85.008 400.463 82.96C402.938 78.1813 405.626 73.9573 408.527 70.288C405.796 71.6533 402.938 73.4453 399.951 75.664C397.05 77.8827 394.02 80.4853 390.863 83.472C383.524 90.64 378.49 97.8933 375.759 105.232C375.332 105.915 374.607 106.256 373.583 106.256Z" fill="black"/>
<path d="M458.324 108C451.791 108 446.524 107 442.524 105C438.191 102.867 436.024 99.8667 436.024 96C436.024 93.9333 436.658 91.7333 437.924 89.4C439.591 86.4 442.891 83.8333 447.824 81.7C452.024 79.9667 455.658 79.1 458.724 79.1C459.524 79.1 459.924 79.3667 459.924 79.9C459.924 80.5667 459.458 80.9 458.524 80.9C456.391 80.9 453.658 81.9 450.324 83.9C446.591 86.2333 444.391 88.5667 443.724 90.9C443.591 91.5 443.458 92.1 443.324 92.7C443.258 93.2333 443.224 93.7667 443.224 94.3C443.224 100.1 447.191 103.7 455.124 105.1C462.858 106.5 470.891 105.3 479.224 101.5C488.558 97.1667 494.858 90.9333 498.124 82.8C498.591 81.6667 498.824 80.5333 498.824 79.4C498.824 76.7333 497.324 74.7667 494.324 73.5C491.724 72.3667 488.524 71.8 484.724 71.8C480.791 71.8 477.524 72.3 474.924 73.3C474.324 73.5667 473.691 73.7 473.024 73.7C471.824 73.7 471.224 73.1333 471.224 72C471.224 71.2667 471.491 70.6 472.024 70C472.558 69.3333 473.258 69 474.124 69C479.858 69 485.224 68.0333 490.224 66.1C496.624 63.5667 500.224 60 501.024 55.4C501.091 55.1333 501.124 54.9 501.124 54.7C501.124 54.5 501.124 54.3 501.124 54.1C501.124 51.2333 499.224 49.8 495.424 49.8C492.091 49.8 488.024 50.7 483.224 52.5C478.958 54.1 475.258 55.9 472.124 57.9C471.858 58.1 471.624 58.2 471.424 58.2C470.958 58.2 470.724 57.7667 470.724 56.9C470.724 54.9 471.358 53.7667 472.624 53.5C474.158 53.0333 476.591 51.2333 479.924 48.1C480.324 47.7 480.691 47.5667 481.024 47.7C481.358 47.8333 481.524 48.0667 481.524 48.4C481.524 48.8 481.324 49.2 480.924 49.6C480.724 49.7333 480.458 50 480.124 50.4C487.258 47.3333 493.224 45.8 498.024 45.8C504.558 45.8 507.691 48.8333 507.424 54.9C507.091 60.7 501.124 65.4 489.524 69C499.591 70.0667 504.624 73.6 504.624 79.6C504.624 80.6 504.491 81.5333 504.224 82.4C502.224 90.2667 496.324 96.6667 486.524 101.6C477.924 105.867 468.524 108 458.324 108ZM520.002 107.9C518.668 107.9 517.402 107.8 516.202 107.6C510.668 106.867 507.902 102.933 507.902 95.8C507.902 88.8 510.502 81.0667 515.702 72.6C518.902 67.2667 523.502 62.0667 529.502 57C535.235 52.0667 541.035 48.2667 546.902 45.6C546.635 45.3333 546.502 45.0667 546.502 44.8C546.502 44.3333 547.035 44 548.102 43.8C549.168 43.6 550.535 43.5667 552.202 43.7C554.135 43.0333 556.702 42.7 559.902 42.7C564.902 42.7 567.402 43.6333 567.402 45.5C567.268 46.4333 566.602 46.6333 565.402 46.1C563.202 45.3 561.168 44.9333 559.302 45C561.368 45.6667 563.268 46.8333 565.002 48.5C568.735 52.0333 570.602 56.5333 570.602 62C570.602 67 569.102 72.2667 566.102 77.8C563.235 83.2667 559.335 88.1667 554.402 92.5C542.868 102.767 531.402 107.9 520.002 107.9ZM517.402 105.4C526.868 106.2 537.635 101.3 549.702 90.7C560.102 81.5667 565.302 71.6333 565.302 60.9C565.302 55.8333 564.235 52.4333 562.102 50.7C558.835 48.1667 555.768 46.6333 552.902 46.1C546.702 48.0333 540.168 52.2667 533.302 58.8C528.235 63.7333 524.035 68.7667 520.702 73.9C515.235 82.3667 512.502 90.2 512.502 97.4C512.502 102.467 514.135 105.133 517.402 105.4ZM593.019 51.8C592.552 52.1333 592.219 51.9667 592.019 51.3C591.885 50.6333 591.885 49.7 592.019 48.5C592.152 47.1667 592.452 46.3667 592.919 46.1C594.452 44.9667 596.152 44.3 598.019 44.1C598.419 44.0333 599.052 44 599.919 44C600.852 43.9333 602.052 43.9 603.519 43.9C605.119 43.9 607.052 44.1333 609.319 44.6C611.652 45 614.352 45.6333 617.419 46.5C620.485 47.3667 623.152 48.0333 625.419 48.5C627.752 48.9 629.719 49.1 631.319 49.1C632.652 49.1 634.152 48.7 635.819 47.9C638.019 46.7667 639.119 45.4 639.119 43.8C639.119 42.8 639.519 42.3 640.319 42.3C641.119 42.3 641.519 43.1667 641.519 44.9C641.519 47.1667 640.019 48.9667 637.019 50.3C635.019 51.1667 632.919 51.6 630.719 51.6C629.052 51.6 627.085 51.5 624.819 51.3C622.552 51.1 619.952 50.7667 617.019 50.3C614.152 49.8333 611.552 49.5 609.219 49.3C606.952 49.1 604.952 49 603.219 49C598.885 49 595.485 49.9333 593.019 51.8ZM577.619 107.8C572.152 108 567.652 107.2 564.119 105.4C560.652 103.6 558.919 101.067 558.919 97.8C558.919 94.4 561.085 90.6333 565.419 86.5C566.085 85.8333 566.719 85.5 567.319 85.5C567.785 85.5 568.019 85.7333 568.019 86.2C568.019 86.7333 567.685 87.3333 567.019 88C564.619 90.2667 563.419 92.6 563.419 95C563.419 97.8 564.952 100.133 568.019 102C571.085 103.867 574.685 104.8 578.819 104.8C586.752 104.8 594.785 101.967 602.919 96.3C611.385 90.4333 616.385 83.7667 617.919 76.3C617.985 75.9667 618.019 75.6333 618.019 75.3C618.085 74.9667 618.119 74.6333 618.119 74.3C618.119 70.9667 616.052 68.4333 611.919 66.7C608.852 65.5667 605.552 65.0667 602.019 65.2C597.619 65.4 593.619 66.3667 590.019 68.1L579.519 73.2C579.385 73.2667 579.185 73.3 578.919 73.3C578.319 73.3 578.019 72.9 578.019 72.1C578.019 71.1 578.452 70.4 579.319 70L591.119 55.1C591.719 54.3667 593.219 54 595.619 54C596.952 54 597.619 54.2 597.619 54.6C597.619 54.7333 597.552 54.8667 597.419 55L585.819 67.6C594.352 64.2 600.452 62.5 604.119 62.5C618.385 62.5 625.519 66.0333 625.519 73.1C625.519 74.1667 625.319 75.3667 624.919 76.7C622.185 85.3 616.019 92.6333 606.419 98.7C597.352 104.367 587.752 107.4 577.619 107.8Z" fill="black"/>
</svg>
